<svg width="314" height="49" viewBox="0 0 314 49" fill="none" xmlns="http://www.w3.org/2000/svg">
<g filter="url(#filter0_d)">
<path d="M22.0525 3.97356L4.81335 41.672L19.5122 27.0608L27.1331 37.3418L33.4848 27.6023L22.2341 3.61255L22.0525 3.97356Z" fill="white"/>
<path d="M41.3771 45.7304C41.0276 45.7304 40.6956 45.5304 40.5472 45.1927L33.7113 29.7916L27.9864 38.6441C27.8224 38.8983 27.5412 39.0536 27.2366 39.0575C26.934 39.0691 26.647 38.9158 26.4751 38.6674L19.4928 28.5862L3.56963 45.447C3.26698 45.7692 2.77298 45.8235 2.40395 45.5809C2.03491 45.3364 1.89824 44.8628 2.07982 44.461L21.4961 1.53182C21.6425 1.20768 21.9667 1 22.324 1C22.3259 1 22.3259 1 22.3279 1C22.6872 1.00194 23.0093 1.21156 23.1538 1.53764L42.2069 44.4649C42.41 44.921 42.2011 45.4528 41.7422 45.6547C41.6251 45.7051 41.5001 45.7304 41.3771 45.7304ZM22.3162 4.11711L5.96152 40.2783L18.9402 26.5347C19.1276 26.3367 19.3951 26.2319 19.6705 26.2533C19.9438 26.2746 20.1937 26.4163 20.3499 26.6415L27.1976 36.5285L32.8327 27.8138L22.3162 4.11711Z" fill="white"/>
</g>
<path d="M65.2806 26.5217L63.8475 29.7575H62.2847L68.0593 16.9604H69.5871L75.3442 29.7575H73.7429L72.3062 26.5217H65.2806ZM68.7776 18.6219L65.9078 25.111H71.6825L68.7776 18.6219Z" fill="white"/>
<path d="M95.7689 29.7575L88.0425 19.4822V29.7575H86.5708V16.9604H88.0986L95.825 27.2531V16.9604H97.2791V29.7575H95.7689Z" fill="white"/>
<path d="M115.609 16.957C119.361 16.957 122.231 19.7192 122.231 23.3556C122.231 26.992 119.344 29.7541 115.556 29.7541H110.405V16.957H115.609ZM111.873 28.3678H115.626C118.496 28.3678 120.738 26.2292 120.738 23.3765C120.738 20.5064 118.457 18.3677 115.57 18.3677H111.873V28.3678Z" fill="white"/>
<path d="M135.595 18.3642V22.5684H142.088V23.9756H135.595V28.3643H143.101V29.7541H134.123V16.957H142.859V18.3642H135.595Z" fill="white"/>
<path d="M163.212 18.0923L162.585 19.4647C161.425 18.6949 160.065 18.3849 159.035 18.3849C157.381 18.3849 156.295 19.0084 156.295 20.0847C156.295 23.3762 163.541 21.6556 163.524 26.2986C163.524 28.4372 161.628 29.8096 158.87 29.8096C156.992 29.8096 155.156 29.005 153.94 27.8555L154.602 26.5389C155.797 27.6918 157.434 28.3502 158.888 28.3502C160.745 28.3502 161.905 27.6013 161.905 26.3752C161.922 23.0105 154.676 24.8008 154.676 20.2135C154.676 18.2003 156.459 16.9046 159.126 16.9046C160.619 16.9011 162.146 17.3783 163.212 18.0923Z" fill="white"/>
<path d="M195.197 16.957C198.949 16.957 201.819 19.7192 201.819 23.3556C201.819 26.992 198.932 29.7541 195.141 29.7541H189.99V16.957H195.197ZM191.461 28.3678H195.214C198.084 28.3678 200.326 26.2292 200.326 23.3765C200.326 20.5064 198.045 18.3677 195.158 18.3677H191.461V28.3678Z" fill="white"/>
<path d="M213.708 29.7575V16.9604H215.18V29.7575H213.708Z" fill="white"/>
<path d="M238.565 23.5016V28.1446C237.297 29.1512 235.513 29.827 233.782 29.827C230.047 29.827 227.068 26.9569 227.068 23.3553C227.068 19.7537 230.068 16.9185 233.856 16.9185C235.639 16.9185 237.367 17.5942 238.6 18.674L237.756 19.7711C236.708 18.8377 235.289 18.2908 233.856 18.2908C230.912 18.2908 228.557 20.5374 228.557 23.3553C228.557 26.1906 230.93 28.4372 233.873 28.4372C235.033 28.4372 236.263 28.0331 237.258 27.3574V23.4981H238.565V23.5016Z" fill="white"/>
<path d="M251.342 29.7575V16.9604H252.813V29.7575H251.342Z" fill="white"/>
<path d="M269.832 18.3642V29.7541H268.36V18.3642H264.166V16.957H274.043V18.3642H269.832Z" fill="white"/>
<path d="M285.31 26.5217L283.877 29.7575H282.314L288.089 16.9604H289.616L295.373 29.7575H293.772L292.339 26.5217H285.31ZM288.803 18.6219L285.934 25.111H291.708L288.803 18.6219Z" fill="white"/>
<path d="M313.72 28.3677V29.7575H306.6V16.9604H308.072V28.3712H313.72V28.3677Z" fill="white"/>
<defs>
<filter id="filter0_d" x="0" y="0" width="44.2846" height="48.7316" filterUnits="userSpaceOnUse" color-interpolation-filters="sRGB">
<feFlood flood-opacity="0" result="BackgroundImageFix"/>
<feColorMatrix in="SourceAlpha" type="matrix" values="0 0 0 0 0 0 0 0 0 0 0 0 0 0 0 0 0 0 127 0"/>
<feOffset dy="1"/>
<feGaussianBlur stdDeviation="1"/>
<feColorMatrix type="matrix" values="0 0 0 0 0 0 0 0 0 0 0 0 0 0 0 0 0 0 0.25 0"/>
<feBlend mode="normal" in2="BackgroundImageFix" result="effect1_dropShadow"/>
<feBlend mode="normal" in="SourceGraphic" in2="effect1_dropShadow" result="shape"/>
</filter>
</defs>
</svg>
